<?xml version="1.0" encoding="UTF-8"?>
<!-- Generator: Adobe Illustrator 14.0.0, SVG Export Plug-In . SVG Version: 6.00 Build 43363)  -->
<!DOCTYPE svg PUBLIC "-//W3C//DTD SVG 1.1//EN" "http://www.w3.org/Graphics/SVG/1.1/DTD/svg11.dtd">
<svg version="1.1" id="Layer_1" xmlns="http://www.w3.org/2000/svg" xmlns:xlink="http://www.w3.org/1999/xlink" x="0px" y="0px" width="25.51px" height="25.51px" viewBox="0 0 25.51 25.51" enable-background="new 0 0 25.51 25.51" xml:space="preserve">
<linearGradient id="SVGID_1_" gradientUnits="userSpaceOnUse" x1="20.1865" y1="31.8037" x2="1.8709" y2="-7.4892">
	<stop offset="0.4645" style="stop-color:#A8A7A5"/>
	<stop offset="1" style="stop-color:#666667"/>
</linearGradient>
<path fill="url(#SVGID_1_)" d="M24.71,21.146l-6.019-6.018c0.868-1.48,1.375-3.198,1.375-5.035c0-5.514-4.486-10-10-10  s-10,4.486-10,10c0,5.514,4.486,10,10,10c1.865,0,3.606-0.523,5.103-1.416l6.006,6.006c0.488,0.488,1.128,0.732,1.768,0.732  s1.279-0.244,1.768-0.732C25.687,23.707,25.687,22.123,24.71,21.146z M5.066,10.094c0-2.757,2.243-5,5-5s5,2.243,5,5s-2.243,5-5,5  S5.066,12.851,5.066,10.094z"/>
<circle fill="#F1F1F2" cx="9.099" cy="8.088" r="2.005"/>
</svg>